<svg width="222" height="30" viewBox="0 0 222 30" fill="none" xmlns="http://www.w3.org/2000/svg">
<mask id="path-1-outside-1_2315_97" maskUnits="userSpaceOnUse" x="-1" y="-1" width="224" height="32" fill="black">
<rect fill="white" x="-1" y="-1" width="224" height="32"/>
<path d="M0.92 29V2.6H13.76C17.0133 2.62667 19.4133 3.25333 20.96 4.48C22.5067 5.68 23.28 7.42667 23.28 9.72C23.28 11.2133 22.84 12.5067 21.96 13.6C21.08 14.6667 19.7333 15.3467 17.92 15.64V15.68C19.9467 15.9467 21.4533 16.6533 22.44 17.8C23.4533 18.92 23.96 20.28 23.96 21.88C23.96 24.1467 23.16 25.9067 21.56 27.16C19.96 28.3867 17.56 29 14.36 29H0.92ZM7.56 24.16H13.2C14.4533 24.16 15.3867 23.9067 16 23.4C16.6133 22.8933 16.92 22.16 16.92 21.2C16.92 20.2667 16.6133 19.56 16 19.08C15.3867 18.5733 14.4533 18.32 13.2 18.32H7.56V24.16ZM7.56 13.4H12.56C15.0133 13.4 16.24 12.44 16.24 10.52C16.24 8.6 15.0133 7.64 12.56 7.64H7.56V13.4ZM27.5438 29V9H33.5438L33.8238 13.32C34.3304 11.8267 35.0771 10.6667 36.0638 9.84C37.0771 9.01333 38.3571 8.6 39.9038 8.6C40.4104 8.6 40.8371 8.64 41.1838 8.72C41.5571 8.8 41.8504 8.90667 42.0638 9.04L41.3838 14.64C41.1171 14.5333 40.7704 14.4533 40.3438 14.4C39.9438 14.32 39.4504 14.28 38.8638 14.28C38.0638 14.28 37.3171 14.4533 36.6238 14.8C35.9304 15.1467 35.3704 15.6667 34.9438 16.36C34.5438 17.0267 34.3438 17.88 34.3438 18.92V29H27.5438ZM51.2513 29.4C49.8913 29.4 48.6913 29.1733 47.6513 28.72C46.6379 28.24 45.8379 27.48 45.2513 26.44C44.6646 25.4 44.3713 24.04 44.3713 22.36V9H51.1713V20.76C51.1713 22.04 51.4246 22.9333 51.9313 23.44C52.4379 23.9467 53.1579 24.2 54.0913 24.2C54.5713 24.2 55.0246 24.12 55.4513 23.96C55.8779 23.7733 56.2513 23.5067 56.5713 23.16C56.8913 22.7867 57.1313 22.32 57.2913 21.76C57.4779 21.1733 57.5713 20.4933 57.5713 19.72V9H64.3713V29H58.2913L58.0913 25.24C57.4513 26.6533 56.5579 27.7067 55.4113 28.4C54.2646 29.0667 52.8779 29.4 51.2513 29.4ZM72.4169 6.68C71.0302 6.68 70.0169 6.42667 69.3769 5.92C68.7635 5.38667 68.4569 4.56 68.4569 3.44C68.4569 2.29333 68.7635 1.46667 69.3769 0.959999C70.0169 0.426666 71.0302 0.159999 72.4169 0.159999C73.7769 0.159999 74.7769 0.426666 75.4169 0.959999C76.0569 1.46667 76.3769 2.29333 76.3769 3.44C76.3769 4.56 76.0569 5.38667 75.4169 5.92C74.7769 6.42667 73.7769 6.68 72.4169 6.68ZM75.8169 9V29H69.0169V9H75.8169ZM80.4175 29V9H86.4975L86.8575 15.88L86.0975 15.12C86.3642 13.68 86.8308 12.48 87.4975 11.52C88.1908 10.56 89.0442 9.84 90.0575 9.36C91.0975 8.85333 92.2575 8.6 93.5375 8.6C94.9242 8.6 96.1242 8.86667 97.1375 9.4C98.1775 9.93333 98.9908 10.72 99.5775 11.76C100.164 12.8 100.458 14.1067 100.458 15.68V29H93.6575V17.48C93.6575 16.0933 93.3908 15.1333 92.8575 14.6C92.3242 14.0667 91.6442 13.8 90.8175 13.8C90.1775 13.8 89.5775 13.96 89.0175 14.28C88.4575 14.5733 88.0175 15.0533 87.6975 15.72C87.3775 16.3867 87.2175 17.28 87.2175 18.4V29H80.4175ZM128.784 21.44C128.277 23.28 127.464 24.8 126.344 26C125.224 27.1733 123.891 28.04 122.344 28.6C120.797 29.1333 119.091 29.4 117.224 29.4C114.557 29.4 112.251 28.8667 110.304 27.8C108.357 26.7067 106.864 25.1467 105.824 23.12C104.784 21.0933 104.264 18.6533 104.264 15.8C104.264 12.9467 104.784 10.5067 105.824 8.48C106.864 6.45333 108.357 4.90667 110.304 3.84C112.251 2.74667 114.544 2.2 117.184 2.2C119.024 2.2 120.717 2.46667 122.264 3C123.811 3.50667 125.117 4.29333 126.184 5.36C127.251 6.42667 128.011 7.8 128.464 9.48L122.424 11.92C122.051 10.2667 121.437 9.13333 120.584 8.52C119.757 7.90667 118.704 7.6 117.424 7.6C116.171 7.6 115.077 7.90667 114.144 8.52C113.237 9.13333 112.531 10.0533 112.024 11.28C111.544 12.48 111.304 13.9867 111.304 15.8C111.304 17.5867 111.531 19.0933 111.984 20.32C112.437 21.5467 113.117 22.4667 114.024 23.08C114.957 23.6933 116.104 24 117.464 24C118.744 24 119.824 23.6533 120.704 22.96C121.611 22.24 122.224 21.1467 122.544 19.68L128.784 21.44ZM143.051 16.32C143.051 15.3867 142.784 14.6533 142.251 14.12C141.744 13.56 141.051 13.28 140.171 13.28C139.291 13.28 138.531 13.5067 137.891 13.96C137.277 14.3867 136.851 15.16 136.611 16.28L130.851 14.92C131.224 13 132.211 11.4667 133.811 10.32C135.411 9.17333 137.664 8.6 140.571 8.6C142.517 8.6 144.171 8.89333 145.531 9.48C146.917 10.04 147.971 10.8933 148.691 12.04C149.437 13.16 149.811 14.5467 149.811 16.2V23.52C149.811 24.56 150.277 25.08 151.211 25.08C151.691 25.08 152.077 25.0267 152.371 24.92L151.971 28.8C151.171 29.1733 150.197 29.36 149.051 29.36C148.011 29.36 147.091 29.2 146.291 28.88C145.491 28.5333 144.864 28.0267 144.411 27.36C143.957 26.6667 143.731 25.8 143.731 24.76V24.52L144.491 24.24C144.491 25.3867 144.144 26.3467 143.451 27.12C142.784 27.8933 141.904 28.4667 140.811 28.84C139.744 29.2133 138.624 29.4 137.451 29.4C136.091 29.4 134.904 29.1867 133.891 28.76C132.877 28.3333 132.091 27.72 131.531 26.92C130.997 26.0933 130.731 25.08 130.731 23.88C130.731 22.44 131.157 21.2533 132.011 20.32C132.891 19.36 134.264 18.6933 136.131 18.32L143.691 16.76L143.651 20.36L139.811 21.16C139.011 21.32 138.411 21.56 138.011 21.88C137.637 22.1733 137.451 22.6267 137.451 23.24C137.451 23.8267 137.664 24.2667 138.091 24.56C138.517 24.8533 139.024 25 139.611 25C140.064 25 140.491 24.9333 140.891 24.8C141.317 24.6667 141.691 24.4667 142.011 24.2C142.331 23.9067 142.584 23.5467 142.771 23.12C142.957 22.6933 143.051 22.1867 143.051 21.6V16.32ZM164.138 8.6C166.165 8.6 167.845 8.89333 169.178 9.48C170.538 10.04 171.592 10.8 172.338 11.76C173.112 12.6933 173.592 13.7067 173.778 14.8L167.498 16.88C167.312 15.7333 166.965 14.88 166.458 14.32C165.978 13.7333 165.272 13.44 164.338 13.44C163.485 13.44 162.765 13.64 162.178 14.04C161.618 14.4133 161.192 15.0267 160.898 15.88C160.605 16.7067 160.458 17.7733 160.458 19.08C160.458 20.3867 160.618 21.4533 160.938 22.28C161.258 23.08 161.712 23.6667 162.298 24.04C162.885 24.3867 163.578 24.56 164.378 24.56C165.045 24.56 165.592 24.44 166.018 24.2C166.472 23.9333 166.845 23.56 167.138 23.08C167.432 22.6 167.618 22.0133 167.698 21.32L173.818 23.28C173.632 24.4533 173.125 25.5067 172.298 26.44C171.498 27.3467 170.432 28.0667 169.098 28.6C167.765 29.1333 166.205 29.4 164.418 29.4C162.232 29.4 160.325 29 158.698 28.2C157.072 27.3733 155.818 26.1867 154.938 24.64C154.058 23.0667 153.618 21.1867 153.618 19C153.618 16.8133 154.058 14.9467 154.938 13.4C155.818 11.8267 157.045 10.64 158.618 9.84C160.218 9.01333 162.058 8.6 164.138 8.6ZM177.114 29V0.52H183.914V12.64C184.5 11.3067 185.34 10.3067 186.434 9.64C187.527 8.94666 188.794 8.6 190.234 8.6C191.62 8.6 192.82 8.86667 193.834 9.4C194.874 9.93333 195.687 10.72 196.274 11.76C196.86 12.8 197.154 14.1067 197.154 15.68V29H190.354V17.56C190.354 16.12 190.087 15.1333 189.554 14.6C189.047 14.04 188.367 13.76 187.514 13.76C186.874 13.76 186.274 13.92 185.714 14.24C185.154 14.56 184.714 15.0667 184.394 15.76C184.074 16.4533 183.914 17.36 183.914 18.48V29H177.114ZM211.438 29.4C209.225 29.4 207.305 28.9867 205.678 28.16C204.078 27.3333 202.838 26.1467 201.958 24.6C201.078 23.0533 200.638 21.1867 200.638 19C200.638 16.8133 201.078 14.9467 201.958 13.4C202.838 11.8533 204.065 10.6667 205.638 9.84C207.238 9.01333 209.065 8.6 211.118 8.6C213.225 8.6 215.012 9.01333 216.478 9.84C217.972 10.64 219.105 11.76 219.878 13.2C220.652 14.6133 221.038 16.24 221.038 18.08C221.038 18.56 221.025 19.04 220.998 19.52C220.972 20 220.932 20.4 220.878 20.72H205.038V17.08H217.878L214.638 18.32C214.638 16.72 214.345 15.4933 213.758 14.64C213.198 13.7867 212.318 13.36 211.118 13.36C210.265 13.36 209.532 13.56 208.918 13.96C208.332 14.36 207.878 14.9867 207.558 15.84C207.265 16.6933 207.118 17.7867 207.118 19.12C207.118 20.4267 207.292 21.4933 207.638 22.32C207.985 23.12 208.478 23.7067 209.118 24.08C209.758 24.4267 210.532 24.6 211.438 24.6C212.452 24.6 213.252 24.4 213.838 24C214.452 23.6 214.905 23.04 215.198 22.32L220.638 24.12C220.265 25.2667 219.612 26.24 218.678 27.04C217.772 27.8133 216.678 28.4 215.398 28.8C214.145 29.2 212.825 29.4 211.438 29.4Z"/>
</mask>
<path d="M0.92 29V2.6H13.76C17.0133 2.62667 19.4133 3.25333 20.96 4.48C22.5067 5.68 23.28 7.42667 23.28 9.72C23.28 11.2133 22.84 12.5067 21.96 13.6C21.08 14.6667 19.7333 15.3467 17.92 15.64V15.68C19.9467 15.9467 21.4533 16.6533 22.44 17.8C23.4533 18.92 23.96 20.28 23.96 21.88C23.96 24.1467 23.16 25.9067 21.56 27.16C19.96 28.3867 17.56 29 14.36 29H0.92ZM7.56 24.16H13.2C14.4533 24.16 15.3867 23.9067 16 23.4C16.6133 22.8933 16.92 22.16 16.92 21.2C16.92 20.2667 16.6133 19.56 16 19.08C15.3867 18.5733 14.4533 18.32 13.2 18.32H7.56V24.16ZM7.56 13.4H12.56C15.0133 13.4 16.24 12.44 16.24 10.52C16.24 8.6 15.0133 7.64 12.56 7.64H7.56V13.4ZM27.5438 29V9H33.5438L33.8238 13.32C34.3304 11.8267 35.0771 10.6667 36.0638 9.84C37.0771 9.01333 38.3571 8.6 39.9038 8.6C40.4104 8.6 40.8371 8.64 41.1838 8.72C41.5571 8.8 41.8504 8.90667 42.0638 9.04L41.3838 14.64C41.1171 14.5333 40.7704 14.4533 40.3438 14.4C39.9438 14.32 39.4504 14.28 38.8638 14.28C38.0638 14.28 37.3171 14.4533 36.6238 14.8C35.9304 15.1467 35.3704 15.6667 34.9438 16.36C34.5438 17.0267 34.3438 17.88 34.3438 18.92V29H27.5438ZM51.2513 29.4C49.8913 29.4 48.6913 29.1733 47.6513 28.72C46.6379 28.24 45.8379 27.48 45.2513 26.44C44.6646 25.4 44.3713 24.04 44.3713 22.36V9H51.1713V20.76C51.1713 22.04 51.4246 22.9333 51.9313 23.44C52.4379 23.9467 53.1579 24.2 54.0913 24.2C54.5713 24.2 55.0246 24.12 55.4513 23.96C55.8779 23.7733 56.2513 23.5067 56.5713 23.16C56.8913 22.7867 57.1313 22.32 57.2913 21.76C57.4779 21.1733 57.5713 20.4933 57.5713 19.72V9H64.3713V29H58.2913L58.0913 25.24C57.4513 26.6533 56.5579 27.7067 55.4113 28.4C54.2646 29.0667 52.8779 29.4 51.2513 29.4ZM72.4169 6.68C71.0302 6.68 70.0169 6.42667 69.3769 5.92C68.7635 5.38667 68.4569 4.56 68.4569 3.44C68.4569 2.29333 68.7635 1.46667 69.3769 0.959999C70.0169 0.426666 71.0302 0.159999 72.4169 0.159999C73.7769 0.159999 74.7769 0.426666 75.4169 0.959999C76.0569 1.46667 76.3769 2.29333 76.3769 3.44C76.3769 4.56 76.0569 5.38667 75.4169 5.92C74.7769 6.42667 73.7769 6.68 72.4169 6.68ZM75.8169 9V29H69.0169V9H75.8169ZM80.4175 29V9H86.4975L86.8575 15.88L86.0975 15.12C86.3642 13.68 86.8308 12.48 87.4975 11.52C88.1908 10.56 89.0442 9.84 90.0575 9.36C91.0975 8.85333 92.2575 8.6 93.5375 8.6C94.9242 8.6 96.1242 8.86667 97.1375 9.4C98.1775 9.93333 98.9908 10.72 99.5775 11.76C100.164 12.8 100.458 14.1067 100.458 15.68V29H93.6575V17.48C93.6575 16.0933 93.3908 15.1333 92.8575 14.6C92.3242 14.0667 91.6442 13.8 90.8175 13.8C90.1775 13.8 89.5775 13.96 89.0175 14.28C88.4575 14.5733 88.0175 15.0533 87.6975 15.72C87.3775 16.3867 87.2175 17.28 87.2175 18.4V29H80.4175ZM128.784 21.44C128.277 23.28 127.464 24.8 126.344 26C125.224 27.1733 123.891 28.04 122.344 28.6C120.797 29.1333 119.091 29.4 117.224 29.4C114.557 29.4 112.251 28.8667 110.304 27.8C108.357 26.7067 106.864 25.1467 105.824 23.12C104.784 21.0933 104.264 18.6533 104.264 15.8C104.264 12.9467 104.784 10.5067 105.824 8.48C106.864 6.45333 108.357 4.90667 110.304 3.84C112.251 2.74667 114.544 2.2 117.184 2.2C119.024 2.2 120.717 2.46667 122.264 3C123.811 3.50667 125.117 4.29333 126.184 5.36C127.251 6.42667 128.011 7.8 128.464 9.48L122.424 11.92C122.051 10.2667 121.437 9.13333 120.584 8.52C119.757 7.90667 118.704 7.6 117.424 7.6C116.171 7.6 115.077 7.90667 114.144 8.52C113.237 9.13333 112.531 10.0533 112.024 11.28C111.544 12.48 111.304 13.9867 111.304 15.8C111.304 17.5867 111.531 19.0933 111.984 20.32C112.437 21.5467 113.117 22.4667 114.024 23.08C114.957 23.6933 116.104 24 117.464 24C118.744 24 119.824 23.6533 120.704 22.96C121.611 22.24 122.224 21.1467 122.544 19.68L128.784 21.44ZM143.051 16.32C143.051 15.3867 142.784 14.6533 142.251 14.12C141.744 13.56 141.051 13.28 140.171 13.28C139.291 13.28 138.531 13.5067 137.891 13.96C137.277 14.3867 136.851 15.16 136.611 16.28L130.851 14.92C131.224 13 132.211 11.4667 133.811 10.32C135.411 9.17333 137.664 8.6 140.571 8.6C142.517 8.6 144.171 8.89333 145.531 9.48C146.917 10.04 147.971 10.8933 148.691 12.04C149.437 13.16 149.811 14.5467 149.811 16.2V23.52C149.811 24.56 150.277 25.08 151.211 25.08C151.691 25.08 152.077 25.0267 152.371 24.92L151.971 28.8C151.171 29.1733 150.197 29.36 149.051 29.36C148.011 29.36 147.091 29.2 146.291 28.88C145.491 28.5333 144.864 28.0267 144.411 27.36C143.957 26.6667 143.731 25.8 143.731 24.76V24.52L144.491 24.24C144.491 25.3867 144.144 26.3467 143.451 27.12C142.784 27.8933 141.904 28.4667 140.811 28.84C139.744 29.2133 138.624 29.4 137.451 29.4C136.091 29.4 134.904 29.1867 133.891 28.76C132.877 28.3333 132.091 27.72 131.531 26.92C130.997 26.0933 130.731 25.08 130.731 23.88C130.731 22.44 131.157 21.2533 132.011 20.32C132.891 19.36 134.264 18.6933 136.131 18.32L143.691 16.76L143.651 20.36L139.811 21.16C139.011 21.32 138.411 21.56 138.011 21.88C137.637 22.1733 137.451 22.6267 137.451 23.24C137.451 23.8267 137.664 24.2667 138.091 24.56C138.517 24.8533 139.024 25 139.611 25C140.064 25 140.491 24.9333 140.891 24.8C141.317 24.6667 141.691 24.4667 142.011 24.2C142.331 23.9067 142.584 23.5467 142.771 23.12C142.957 22.6933 143.051 22.1867 143.051 21.6V16.32ZM164.138 8.6C166.165 8.6 167.845 8.89333 169.178 9.48C170.538 10.04 171.592 10.8 172.338 11.76C173.112 12.6933 173.592 13.7067 173.778 14.8L167.498 16.88C167.312 15.7333 166.965 14.88 166.458 14.32C165.978 13.7333 165.272 13.44 164.338 13.44C163.485 13.44 162.765 13.64 162.178 14.04C161.618 14.4133 161.192 15.0267 160.898 15.88C160.605 16.7067 160.458 17.7733 160.458 19.08C160.458 20.3867 160.618 21.4533 160.938 22.28C161.258 23.08 161.712 23.6667 162.298 24.04C162.885 24.3867 163.578 24.56 164.378 24.56C165.045 24.56 165.592 24.44 166.018 24.2C166.472 23.9333 166.845 23.56 167.138 23.08C167.432 22.6 167.618 22.0133 167.698 21.32L173.818 23.28C173.632 24.4533 173.125 25.5067 172.298 26.44C171.498 27.3467 170.432 28.0667 169.098 28.6C167.765 29.1333 166.205 29.4 164.418 29.4C162.232 29.4 160.325 29 158.698 28.2C157.072 27.3733 155.818 26.1867 154.938 24.64C154.058 23.0667 153.618 21.1867 153.618 19C153.618 16.8133 154.058 14.9467 154.938 13.4C155.818 11.8267 157.045 10.64 158.618 9.84C160.218 9.01333 162.058 8.6 164.138 8.6ZM177.114 29V0.52H183.914V12.64C184.5 11.3067 185.34 10.3067 186.434 9.64C187.527 8.94666 188.794 8.6 190.234 8.6C191.62 8.6 192.82 8.86667 193.834 9.4C194.874 9.93333 195.687 10.72 196.274 11.76C196.86 12.8 197.154 14.1067 197.154 15.68V29H190.354V17.56C190.354 16.12 190.087 15.1333 189.554 14.6C189.047 14.04 188.367 13.76 187.514 13.76C186.874 13.76 186.274 13.92 185.714 14.24C185.154 14.56 184.714 15.0667 184.394 15.76C184.074 16.4533 183.914 17.36 183.914 18.48V29H177.114ZM211.438 29.4C209.225 29.4 207.305 28.9867 205.678 28.16C204.078 27.3333 202.838 26.1467 201.958 24.6C201.078 23.0533 200.638 21.1867 200.638 19C200.638 16.8133 201.078 14.9467 201.958 13.4C202.838 11.8533 204.065 10.6667 205.638 9.84C207.238 9.01333 209.065 8.6 211.118 8.6C213.225 8.6 215.012 9.01333 216.478 9.84C217.972 10.64 219.105 11.76 219.878 13.2C220.652 14.6133 221.038 16.24 221.038 18.08C221.038 18.56 221.025 19.04 220.998 19.52C220.972 20 220.932 20.4 220.878 20.72H205.038V17.08H217.878L214.638 18.32C214.638 16.72 214.345 15.4933 213.758 14.64C213.198 13.7867 212.318 13.36 211.118 13.36C210.265 13.36 209.532 13.56 208.918 13.96C208.332 14.36 207.878 14.9867 207.558 15.84C207.265 16.6933 207.118 17.7867 207.118 19.12C207.118 20.4267 207.292 21.4933 207.638 22.32C207.985 23.12 208.478 23.7067 209.118 24.08C209.758 24.4267 210.532 24.6 211.438 24.6C212.452 24.6 213.252 24.4 213.838 24C214.452 23.6 214.905 23.04 215.198 22.32L220.638 24.12C220.265 25.2667 219.612 26.24 218.678 27.04C217.772 27.8133 216.678 28.4 215.398 28.8C214.145 29.2 212.825 29.4 211.438 29.4Z" fill="white"/>
<path d="M0.92 29H-0.0799997V30H0.92V29ZM0.92 2.6V1.6H-0.0799997V2.6H0.92ZM13.76 2.6L13.7682 1.6H13.76V2.6ZM20.96 4.48L20.3386 5.26354L20.347 5.27008L20.96 4.48ZM21.96 13.6L22.7314 14.2364L22.739 14.227L21.96 13.6ZM17.92 15.64L17.7603 14.6528L16.92 14.7888V15.64H17.92ZM17.92 15.68H16.92V16.557L17.7895 16.6715L17.92 15.68ZM22.44 17.8L21.682 18.4522L21.6901 18.4617L21.6985 18.4709L22.44 17.8ZM21.56 27.16L22.1685 27.9536L22.1767 27.9472L21.56 27.16ZM7.56 24.16H6.56V25.16H7.56V24.16ZM16 23.4L16.6369 24.171L16 23.4ZM16 19.08L15.3631 19.851L15.3733 19.8594L15.3837 19.8675L16 19.08ZM7.56 18.32V17.32H6.56V18.32H7.56ZM7.56 13.4H6.56V14.4H7.56V13.4ZM7.56 7.64V6.64H6.56V7.64H7.56ZM1.92 29V2.6H-0.0799997V29H1.92ZM0.92 3.6H13.76V1.6H0.92V3.6ZM13.7518 3.59997C16.915 3.62589 19.0478 4.23978 20.3386 5.2635L21.5814 3.6965C19.7788 2.26689 17.1117 1.62744 13.7682 1.60003L13.7518 3.59997ZM20.347 5.27008C21.606 6.24687 22.28 7.67602 22.28 9.72H24.28C24.28 7.17732 23.4074 5.11313 21.573 3.68991L20.347 5.27008ZM22.28 9.72C22.28 11.0009 21.9084 12.0692 21.181 12.973L22.739 14.227C23.7716 12.9441 24.28 11.4257 24.28 9.72H22.28ZM21.1886 12.9636C20.5079 13.7888 19.4138 14.3854 17.7603 14.6528L18.0797 16.6272C20.0529 16.308 21.6521 15.5446 22.7314 14.2364L21.1886 12.9636ZM16.92 15.64V15.68H18.92V15.64H16.92ZM17.7895 16.6715C19.659 16.9174 20.9047 17.549 21.682 18.4522L23.198 17.1478C22.0019 15.7577 20.2343 14.9759 18.0505 14.6885L17.7895 16.6715ZM21.6985 18.4709C22.535 19.3955 22.96 20.5119 22.96 21.88H24.96C24.96 20.0481 24.3717 18.4445 23.1815 17.1291L21.6985 18.4709ZM22.96 21.88C22.96 23.8797 22.2712 25.3326 20.9433 26.3728L22.1767 27.9472C24.0488 26.4808 24.96 24.4136 24.96 21.88H22.96ZM20.9516 26.3664C19.6022 27.4009 17.4603 28 14.36 28V30C17.6597 30 20.3178 29.3724 22.1684 27.9536L20.9516 26.3664ZM14.36 28H0.92V30H14.36V28ZM7.56 25.16H13.2V23.16H7.56V25.16ZM13.2 25.16C14.5597 25.16 15.7666 24.8899 16.6369 24.171L15.3631 22.629C15.0067 22.9234 14.347 23.16 13.2 23.16V25.16ZM16.6369 24.171C17.5279 23.4349 17.92 22.3903 17.92 21.2H15.92C15.92 21.9297 15.6987 22.3518 15.3631 22.629L16.6369 24.171ZM17.92 21.2C17.92 20.0272 17.5208 19.0004 16.6163 18.2925L15.3837 19.8675C15.7059 20.1196 15.92 20.5061 15.92 21.2H17.92ZM16.6369 18.309C15.7666 17.5901 14.5597 17.32 13.2 17.32V19.32C14.347 19.32 15.0067 19.5566 15.3631 19.851L16.6369 18.309ZM13.2 17.32H7.56V19.32H13.2V17.32ZM6.56 18.32V24.16H8.56V18.32H6.56ZM7.56 14.4H12.56V12.4H7.56V14.4ZM12.56 14.4C13.8897 14.4 15.0713 14.1445 15.9363 13.4675C16.848 12.754 17.24 11.7084 17.24 10.52H15.24C15.24 11.2516 15.0187 11.646 14.7037 11.8925C14.342 12.1755 13.6836 12.4 12.56 12.4V14.4ZM17.24 10.52C17.24 9.33157 16.848 8.28596 15.9363 7.57249C15.0713 6.89552 13.8897 6.64 12.56 6.64V8.64C13.6836 8.64 14.342 8.86448 14.7037 9.1475C15.0187 9.39404 15.24 9.78843 15.24 10.52H17.24ZM12.56 6.64H7.56V8.64H12.56V6.64ZM6.56 7.64V13.4H8.56V7.64H6.56ZM27.5438 29H26.5438V30H27.5438V29ZM27.5438 9V8H26.5438V9H27.5438ZM33.5438 9L34.5417 8.93532L34.481 8H33.5438V9ZM33.8237 13.32L32.8258 13.3847L34.7707 13.6413L33.8237 13.32ZM36.0638 9.84L35.4316 9.06507L35.4215 9.07348L36.0638 9.84ZM41.1838 8.72L40.9589 9.69439L40.9665 9.69616L40.9742 9.6978L41.1838 8.72ZM42.0638 9.04L43.0565 9.16054L43.1331 8.52911L42.5938 8.192L42.0638 9.04ZM41.3838 14.64L41.0124 15.5685L42.2197 16.0514L42.3765 14.7605L41.3838 14.64ZM40.3438 14.4L40.1476 15.3806L40.1835 15.3877L40.2197 15.3923L40.3438 14.4ZM34.9438 16.36L34.092 15.8359L34.0863 15.8455L34.9438 16.36ZM34.3438 29V30H35.3438V29H34.3438ZM28.5438 29V9H26.5438V29H28.5438ZM27.5438 10H33.5438V8H27.5438V10ZM32.5458 9.06468L32.8258 13.3847L34.8217 13.2553L34.5417 8.93532L32.5458 9.06468ZM34.7707 13.6413C35.2318 12.2825 35.8883 11.2916 36.706 10.6065L35.4215 9.07348C34.2659 10.0417 33.4291 11.3709 32.8768 12.9987L34.7707 13.6413ZM36.6959 10.6149C37.4994 9.95935 38.5435 9.6 39.9038 9.6V7.6C38.1707 7.6 36.6548 8.06731 35.4316 9.06513L36.6959 10.6149ZM39.9038 9.6C40.3638 9.6 40.7097 9.63689 40.9589 9.69439L41.4086 7.74561C40.9644 7.6431 40.457 7.6 39.9038 7.6V9.6ZM40.9742 9.6978C41.2867 9.76475 41.456 9.83943 41.5338 9.888L42.5938 8.192C42.2448 7.9739 41.8275 7.83525 41.3933 7.7422L40.9742 9.6978ZM41.071 8.91946L40.391 14.5195L42.3765 14.7605L43.0565 9.16054L41.071 8.91946ZM41.7551 13.7115C41.3803 13.5616 40.9417 13.467 40.4678 13.4077L40.2197 15.3923C40.5991 15.4397 40.8539 15.5051 41.0124 15.5685L41.7551 13.7115ZM40.5399 13.4194C40.054 13.3222 39.4903 13.28 38.8638 13.28V15.28C39.4105 15.28 39.8335 15.3177 40.1476 15.3806L40.5399 13.4194ZM38.8638 13.28C37.9136 13.28 37.0132 13.4872 36.1765 13.9056L37.071 15.6944C37.6209 15.4194 38.2139 15.28 38.8638 15.28V13.28ZM36.1765 13.9056C35.308 14.3399 34.6113 14.9922 34.0921 15.8359L35.7954 16.8841C36.1295 16.3411 36.5529 15.9535 37.071 15.6944L36.1765 13.9056ZM34.0863 15.8455C33.5666 16.7116 33.3438 17.7581 33.3438 18.92H35.3438C35.3438 18.0019 35.5209 17.3417 35.8012 16.8745L34.0863 15.8455ZM33.3438 18.92V29H35.3438V18.92H33.3438ZM34.3438 28H27.5438V30H34.3438V28ZM47.6512 28.72L47.2232 29.6237L47.2373 29.6304L47.2517 29.6367L47.6512 28.72ZM45.2513 26.44L46.1222 25.9487L45.2513 26.44ZM44.3713 9V8H43.3713V9H44.3713ZM51.1712 9H52.1712V8H51.1712V9ZM51.9313 23.44L52.6384 22.7329L51.9313 23.44ZM55.4513 23.96L55.8024 24.8963L55.8275 24.8869L55.8521 24.8762L55.4513 23.96ZM56.5713 23.16L57.3061 23.8383L57.3185 23.8248L57.3305 23.8108L56.5713 23.16ZM57.2913 21.76L56.3383 21.4568L56.3338 21.471L56.3297 21.4853L57.2913 21.76ZM57.5713 9V8H56.5713V9H57.5713ZM64.3713 9H65.3713V8H64.3713V9ZM64.3713 29V30H65.3713V29H64.3713ZM58.2913 29L57.2927 29.0531L57.343 30H58.2913V29ZM58.0913 25.24L59.0898 25.1869L57.1803 24.8275L58.0913 25.24ZM55.4113 28.4L55.9139 29.2645L55.9213 29.2602L55.9287 29.2557L55.4113 28.4ZM51.2513 28.4C50.0019 28.4 48.9423 28.1919 48.0508 27.8033L47.2517 29.6367C48.4402 30.1548 49.7806 30.4 51.2513 30.4V28.4ZM48.0793 27.8163C47.2651 27.4306 46.6144 26.8211 46.1222 25.9487L44.3803 26.9313C45.0615 28.1389 46.0107 29.0494 47.2232 29.6237L48.0793 27.8163ZM46.1222 25.9487C45.6476 25.1074 45.3713 23.9342 45.3713 22.36H43.3713C43.3713 24.1458 43.6815 25.6926 44.3803 26.9313L46.1222 25.9487ZM45.3713 22.36V9H43.3713V22.36H45.3713ZM44.3713 10H51.1712V8H44.3713V10ZM50.1712 9V20.76H52.1712V9H50.1712ZM50.1712 20.76C50.1712 22.1141 50.4281 23.3511 51.2241 24.1471L52.6384 22.7329C52.4211 22.5156 52.1712 21.9659 52.1712 20.76H50.1712ZM51.2241 24.1471C51.9702 24.8931 52.9763 25.2 54.0913 25.2V23.2C53.3396 23.2 52.9057 23.0002 52.6384 22.7329L51.2241 24.1471ZM54.0913 25.2C54.6847 25.2 55.2575 25.1006 55.8024 24.8963L55.1001 23.0237C54.7916 23.1394 54.4578 23.2 54.0913 23.2V25.2ZM55.8521 24.8762C56.407 24.6334 56.8936 24.2851 57.3061 23.8383L55.8364 22.4817C55.6089 22.7282 55.3488 22.9133 55.0504 23.0438L55.8521 24.8762ZM57.3305 23.8108C57.7599 23.3098 58.0604 22.7079 58.2528 22.0347L56.3297 21.4853C56.2021 21.9321 56.0226 22.2635 55.812 22.5092L57.3305 23.8108ZM58.2442 22.0632C58.4688 21.3571 58.5713 20.5711 58.5713 19.72H56.5713C56.5713 20.4156 56.487 20.9895 56.3383 21.4568L58.2442 22.0632ZM58.5713 19.72V9H56.5713V19.72H58.5713ZM57.5713 10H64.3713V8H57.5713V10ZM63.3713 9V29H65.3713V9H63.3713ZM64.3713 28H58.2913V30H64.3713V28ZM59.2898 28.9469L59.0898 25.1869L57.0927 25.2931L57.2927 29.0531L59.2898 28.9469ZM57.1803 24.8275C56.6101 26.0866 55.8414 26.9713 54.8938 27.5443L55.9287 29.2557C57.2744 28.442 58.2924 27.22 59.0022 25.6525L57.1803 24.8275ZM54.9086 27.5355C53.9457 28.0954 52.7411 28.4 51.2513 28.4V30.4C53.0147 30.4 54.5835 30.038 55.9139 29.2645L54.9086 27.5355ZM69.3769 5.92L68.7207 6.6746L68.7381 6.68973L68.7562 6.70405L69.3769 5.92ZM69.3769 0.959999L70.0138 1.73097L70.0171 1.72822L69.3769 0.959999ZM75.4169 0.959999L74.7767 1.72822L74.7863 1.73625L74.7962 1.74404L75.4169 0.959999ZM75.4169 5.92L76.0376 6.70405L76.0474 6.69625L76.0571 6.68822L75.4169 5.92ZM75.8169 9H76.8169V8H75.8169V9ZM75.8169 29V30H76.8169V29H75.8169ZM69.0169 29H68.0169V30H69.0169V29ZM69.0169 9V8H68.0169V9H69.0169ZM72.4169 5.68C71.1125 5.68 70.3744 5.4343 69.9976 5.13595L68.7562 6.70405C69.6593 7.41903 70.9479 7.68 72.4169 7.68V5.68ZM70.0331 5.16539C69.7117 4.88592 69.4569 4.3848 69.4569 3.44H67.4569C67.4569 4.7352 67.8154 5.88741 68.7207 6.6746L70.0331 5.16539ZM69.4569 3.44C69.4569 2.45529 69.7181 1.97521 70.0138 1.73096L68.74 0.189037C67.809 0.958125 67.4569 2.13137 67.4569 3.44H69.4569ZM70.0171 1.72822C70.3916 1.41612 71.1208 1.16 72.4169 1.16V-0.840001C70.9397 -0.840001 69.6422 -0.562793 68.7367 0.191777L70.0171 1.72822ZM72.4169 1.16C73.6806 1.16 74.3995 1.41389 74.7767 1.72822L76.0571 0.191777C75.1543 -0.560554 73.8732 -0.840001 72.4169 -0.840001V1.16ZM74.7962 1.74404C75.1103 1.9927 75.3769 2.4686 75.3769 3.44H77.3769C77.3769 2.11806 77.0035 0.940632 76.0376 0.175953L74.7962 1.74404ZM75.3769 3.44C75.3769 4.3717 75.1168 4.86839 74.7767 5.15178L76.0571 6.68822C76.997 5.90494 77.3769 4.7483 77.3769 3.44H75.3769ZM74.7962 5.13595C74.4167 5.43634 73.689 5.68 72.4169 5.68V7.68C73.8647 7.68 75.137 7.41699 76.0376 6.70405L74.7962 5.13595ZM74.8169 9V29H76.8169V9H74.8169ZM75.8169 28H69.0169V30H75.8169V28ZM70.0169 29V9H68.0169V29H70.0169ZM69.0169 10H75.8169V8H69.0169V10ZM80.4175 29H79.4175V30H80.4175V29ZM80.4175 9V8H79.4175V9H80.4175ZM86.4975 9L87.4961 8.94775L87.4465 8H86.4975V9ZM86.8575 15.88L86.1504 16.5871L87.9922 18.429L87.8561 15.8277L86.8575 15.88ZM86.0975 15.12L85.1142 14.9379L85.0184 15.4551L85.3904 15.8271L86.0975 15.12ZM87.4975 11.52L86.6868 10.9345L86.6814 10.942L86.6761 10.9496L87.4975 11.52ZM90.0575 9.36L90.4856 10.2638L90.4955 10.259L90.0575 9.36ZM97.1375 9.4L96.6717 10.285L96.6812 10.2898L97.1375 9.4ZM100.458 29V30H101.458V29H100.458ZM93.6575 29H92.6575V30H93.6575V29ZM92.8575 14.6L92.1504 15.3071H92.1504L92.8575 14.6ZM89.0175 14.28L89.4815 15.1658L89.4977 15.1573L89.5136 15.1482L89.0175 14.28ZM87.6975 15.72L88.599 16.1527L87.6975 15.72ZM87.2175 29V30H88.2175V29H87.2175ZM81.4175 29V9H79.4175V29H81.4175ZM80.4175 10H86.4975V8H80.4175V10ZM85.4989 9.05225L85.8589 15.9323L87.8561 15.8277L87.4961 8.94775L85.4989 9.05225ZM87.5646 15.1729L86.8046 14.4129L85.3904 15.8271L86.1504 16.5871L87.5646 15.1729ZM87.0808 15.3021C87.328 13.9673 87.7508 12.9084 88.3189 12.0904L86.6761 10.9496C85.9108 12.0516 85.4004 13.3927 85.1142 14.9379L87.0808 15.3021ZM88.3082 12.1055C88.9086 11.2742 89.6332 10.6675 90.4856 10.2637L89.6294 8.45626C88.4552 9.01248 87.4731 9.84581 86.6868 10.9345L88.3082 12.1055ZM90.4955 10.259C91.3851 9.8256 92.3929 9.6 93.5375 9.6V7.6C92.1221 7.6 90.8099 7.88107 89.6195 8.46101L90.4955 10.259ZM93.5375 9.6C94.7958 9.6 95.8293 9.84152 96.6718 10.2849L97.6032 8.51508C96.419 7.89181 95.0525 7.6 93.5375 7.6V9.6ZM96.6812 10.2898C97.543 10.7318 98.2139 11.378 98.7065 12.2513L100.448 11.2687C99.7678 10.062 98.812 9.13491 97.5938 8.51018L96.6812 10.2898ZM98.7065 12.2513C99.1859 13.1012 99.4575 14.2258 99.4575 15.68H101.458C101.458 13.9875 101.142 12.4988 100.448 11.2687L98.7065 12.2513ZM99.4575 15.68V29H101.458V15.68H99.4575ZM100.458 28H93.6575V30H100.458V28ZM94.6575 29V17.48H92.6575V29H94.6575ZM94.6575 17.48C94.6575 16.0292 94.3912 14.7195 93.5646 13.8929L92.1504 15.3071C92.3905 15.5472 92.6575 16.1575 92.6575 17.48H94.6575ZM93.5646 13.8929C92.8248 13.1531 91.8814 12.8 90.8175 12.8V14.8C91.407 14.8 91.8235 14.9802 92.1504 15.3071L93.5646 13.8929ZM90.8175 12.8C90.0021 12.8 89.2312 13.0061 88.5214 13.4118L89.5136 15.1482C89.9238 14.9139 90.3529 14.8 90.8175 14.8V12.8ZM88.5535 13.3942C87.7716 13.8037 87.1928 14.4605 86.796 15.2873L88.599 16.1527C88.8422 15.6461 89.1434 15.3429 89.4815 15.1658L88.5535 13.3942ZM86.796 15.2873C86.3864 16.1405 86.2175 17.2003 86.2175 18.4H88.2175C88.2175 17.3597 88.3686 16.6329 88.599 16.1527L86.796 15.2873ZM86.2175 18.4V29H88.2175V18.4H86.2175ZM87.2175 28H80.4175V30H87.2175V28ZM128.784 21.44L129.748 21.7055L130.012 20.7473L129.056 20.4776L128.784 21.44ZM126.344 26L127.067 26.6905L127.075 26.6823L126.344 26ZM122.344 28.6L122.67 29.5454L122.677 29.5429L122.685 29.5403L122.344 28.6ZM110.304 27.8L109.814 28.6719L109.824 28.677L110.304 27.8ZM105.824 23.12L106.714 22.6634L105.824 23.12ZM105.824 8.48L106.714 8.93655V8.93655L105.824 8.48ZM110.304 3.84L110.785 4.71702L110.794 4.71189L110.304 3.84ZM122.264 3L121.938 3.94537L121.945 3.9479L121.953 3.95031L122.264 3ZM126.184 5.36L126.891 4.65289V4.65289L126.184 5.36ZM128.464 9.48L128.839 10.4072L129.66 10.0752L129.43 9.21948L128.464 9.48ZM122.424 11.92L121.449 12.1403L121.708 13.2879L122.799 12.8472L122.424 11.92ZM120.584 8.52L119.988 9.3231L119.994 9.3276L120 9.33201L120.584 8.52ZM114.144 8.52L113.595 7.68422L113.584 7.69172L114.144 8.52ZM112.024 11.28L111.1 10.8982L111.096 10.9086L112.024 11.28ZM111.984 20.32L111.046 20.6666V20.6667L111.984 20.32ZM114.024 23.08L113.464 23.9084L113.475 23.9157L114.024 23.08ZM120.704 22.96L121.323 23.7455L121.326 23.7431L120.704 22.96ZM122.544 19.68L122.816 18.7176L121.793 18.4293L121.567 19.4668L122.544 19.68ZM127.82 21.1745C127.349 22.8842 126.606 24.2536 125.613 25.3177L127.075 26.6823C128.322 25.3464 129.206 23.6758 129.748 21.7055L127.82 21.1745ZM125.621 25.3095C124.609 26.3695 123.407 27.1515 122.004 27.6597L122.685 29.5403C124.374 28.9285 125.839 27.9771 127.067 26.6905L125.621 25.3095ZM122.018 27.6546C120.59 28.1471 118.995 28.4 117.224 28.4V30.4C119.186 30.4 121.005 30.1196 122.67 29.5454L122.018 27.6546ZM117.224 28.4C114.692 28.4 112.557 27.8942 110.785 26.923L109.824 28.677C111.944 29.8391 114.423 30.4 117.224 30.4V28.4ZM110.794 26.9281C109.022 25.933 107.666 24.5192 106.714 22.6634L104.934 23.5766C106.062 25.7742 107.693 27.4803 109.814 28.6719L110.794 26.9281ZM106.714 22.6634C105.762 20.8092 105.264 18.5338 105.264 15.8H103.264C103.264 18.7729 103.806 21.3774 104.934 23.5766L106.714 22.6634ZM105.264 15.8C105.264 13.0662 105.762 10.7908 106.714 8.93655L104.934 8.02345C103.806 10.2226 103.264 12.8271 103.264 15.8H105.264ZM106.714 8.93655C107.665 7.08282 109.018 5.68492 110.785 4.71698L109.824 2.96302C107.697 4.12842 106.063 5.82384 104.934 8.02345L106.714 8.93655ZM110.794 4.71189C112.566 3.71669 114.684 3.2 117.184 3.2V1.2C114.404 1.2 111.936 1.77664 109.814 2.96811L110.794 4.71189ZM117.184 3.2C118.927 3.2 120.508 3.45241 121.938 3.94537L122.59 2.05463C120.926 1.48092 119.121 1.2 117.184 1.2V3.2ZM121.953 3.95031C123.362 4.41204 124.53 5.12007 125.477 6.06711L126.891 4.65289C125.705 3.46659 124.259 2.60129 122.575 2.04969L121.953 3.95031ZM125.477 6.06711C126.402 6.99216 127.084 8.20316 127.499 9.74052L129.43 9.21948C128.938 7.39684 128.099 5.86117 126.891 4.65289L125.477 6.06711ZM128.09 8.5528L122.049 10.9928L122.799 12.8472L128.839 10.4072L128.09 8.5528ZM123.4 11.6997C123.003 9.94569 122.31 8.5292 121.168 7.70798L120 9.33201C120.565 9.73746 121.098 10.5876 121.449 12.1403L123.4 11.6997ZM121.18 7.7169C120.143 6.94734 118.866 6.6 117.424 6.6V8.6C118.543 8.6 119.372 8.866 119.988 9.3231L121.18 7.7169ZM117.424 6.6C116 6.6 114.711 6.95099 113.595 7.68429L114.693 9.3557C115.444 8.86234 116.341 8.6 117.424 8.6V6.6ZM113.584 7.69172C112.483 8.43641 111.665 9.52919 111.1 10.8982L112.948 11.6618C113.396 10.5775 113.992 9.83026 114.704 9.34828L113.584 7.69172ZM111.096 10.9086C110.553 12.264 110.304 13.907 110.304 15.8H112.304C112.304 14.0664 112.535 12.696 112.953 11.6514L111.096 10.9086ZM110.304 15.8C110.304 17.6646 110.54 19.2966 111.046 20.6666L112.922 19.9734C112.522 18.8901 112.304 17.5087 112.304 15.8H110.304ZM111.046 20.6667C111.557 22.0503 112.352 23.1564 113.464 23.9083L114.584 22.2517C113.882 21.7769 113.317 21.0431 112.922 19.9733L111.046 20.6667ZM113.475 23.9157C114.604 24.6576 115.952 25 117.464 25V23C116.256 23 115.311 22.7291 114.573 22.2443L113.475 23.9157ZM117.464 25C118.935 25 120.242 24.5972 121.323 23.7455L120.085 22.1745C119.406 22.7094 118.553 23 117.464 23V25ZM121.326 23.7431C122.461 22.8419 123.167 21.5174 123.521 19.8932L121.567 19.4668C121.281 20.776 120.761 21.6381 120.082 22.1769L121.326 23.7431ZM122.273 20.6424L128.513 22.4024L129.056 20.4776L122.816 18.7176L122.273 20.6424ZM142.251 14.12L141.509 14.7909L141.526 14.8094L141.544 14.8271L142.251 14.12ZM137.891 13.96L138.462 14.7809L138.469 14.776L137.891 13.96ZM136.611 16.28L136.381 17.2532L137.374 17.4879L137.588 16.4895L136.611 16.28ZM130.851 14.92L129.869 14.7291L129.686 15.6724L130.621 15.8932L130.851 14.92ZM133.811 10.32L134.393 11.1328V11.1328L133.811 10.32ZM145.531 9.48L145.135 10.3982L145.145 10.4029L145.156 10.4072L145.531 9.48ZM148.691 12.04L147.844 12.5718L147.851 12.5833L147.859 12.5947L148.691 12.04ZM152.371 24.92L153.365 25.0225L153.529 23.4347L152.029 23.9802L152.371 24.92ZM151.971 28.8L152.394 29.7062L152.907 29.4665L152.965 28.9025L151.971 28.8ZM146.291 28.88L145.893 29.7976L145.906 29.8032L145.919 29.8085L146.291 28.88ZM144.411 27.36L143.574 27.9072L143.579 27.9148L143.584 27.9223L144.411 27.36ZM143.731 24.52L143.385 23.5817L142.731 23.8227V24.52H143.731ZM144.491 24.24H145.491V22.8059L144.145 23.3017L144.491 24.24ZM143.451 27.12L142.706 26.4525L142.7 26.4597L142.693 26.4671L143.451 27.12ZM140.811 28.84L140.487 27.8936L140.48 27.8961L140.811 28.84ZM133.891 28.76L134.279 27.8384L133.891 28.76ZM131.531 26.92L130.69 27.4621L130.701 27.478L130.711 27.4935L131.531 26.92ZM132.011 20.32L131.273 19.6443L131.273 19.6452L132.011 20.32ZM136.131 18.32L136.327 19.3006L136.333 19.2994L136.131 18.32ZM143.691 16.76L144.691 16.7711L144.704 15.5297L143.489 15.7806L143.691 16.76ZM143.651 20.36L143.855 21.339L144.642 21.175L144.651 20.3711L143.651 20.36ZM139.811 21.16L140.007 22.1406L140.015 22.139L139.811 21.16ZM138.011 21.88L138.628 22.6663L138.635 22.6609L138.011 21.88ZM138.091 24.56L138.657 23.736L138.091 24.56ZM140.891 24.8L140.592 23.8455L140.583 23.8483L140.574 23.8513L140.891 24.8ZM142.011 24.2L142.651 24.9682L142.669 24.9531L142.686 24.9372L142.011 24.2ZM142.771 23.12L143.687 23.5208L142.771 23.12ZM144.051 16.32C144.051 15.1882 143.721 14.1762 142.958 13.4129L141.544 14.8271C141.847 15.1305 142.051 15.5851 142.051 16.32H144.051ZM142.992 13.4491C142.264 12.6443 141.282 12.28 140.171 12.28V14.28C140.819 14.28 141.224 14.4757 141.509 14.7909L142.992 13.4491ZM140.171 12.28C139.11 12.28 138.142 12.5566 137.313 13.144L138.469 14.776C138.919 14.4568 139.471 14.28 140.171 14.28V12.28ZM137.32 13.1391C136.411 13.7712 135.898 14.8307 135.633 16.0705L137.588 16.4895C137.803 15.4893 138.144 15.0021 138.462 14.7809L137.32 13.1391ZM136.84 15.3068L131.08 13.9468L130.621 15.8932L136.381 17.2532L136.84 15.3068ZM131.832 15.1109C132.156 13.4433 132.999 12.1318 134.393 11.1328L133.228 9.50718C131.422 10.8015 130.291 12.5567 129.869 14.7291L131.832 15.1109ZM134.393 11.1328C135.76 10.1534 137.778 9.6 140.571 9.6V7.6C137.55 7.6 135.061 8.19328 133.228 9.50718L134.393 11.1328ZM140.571 9.6C142.422 9.6 143.932 9.87959 145.135 10.3982L145.927 8.56179C144.409 7.90707 142.613 7.6 140.571 7.6V9.6ZM145.156 10.4072C146.369 10.8971 147.247 11.622 147.844 12.5718L149.538 11.5082C148.694 10.1647 147.466 9.18293 145.905 8.55276L145.156 10.4072ZM147.859 12.5947C148.473 13.5163 148.811 14.6987 148.811 16.2H150.811C150.811 14.3946 150.402 12.8037 149.523 11.4853L147.859 12.5947ZM148.811 16.2V23.52H150.811V16.2H148.811ZM148.811 23.52C148.811 24.169 148.954 24.8426 149.416 25.3579C149.897 25.8938 150.56 26.08 151.211 26.08V24.08C151.068 24.08 150.986 24.0598 150.946 24.0451C150.912 24.0325 150.906 24.0232 150.905 24.0221C150.901 24.0174 150.811 23.911 150.811 23.52H148.811ZM151.211 26.08C151.751 26.08 152.267 26.0217 152.712 25.8598L152.029 23.9802C151.888 24.0316 151.63 24.08 151.211 24.08V26.08ZM151.376 24.8175L150.976 28.6975L152.965 28.9025L153.365 25.0225L151.376 24.8175ZM151.548 27.8938C150.914 28.1898 150.093 28.36 149.051 28.36V30.36C150.301 30.36 151.428 30.1569 152.394 29.7062L151.548 27.8938ZM149.051 28.36C148.112 28.36 147.322 28.2156 146.662 27.9515L145.919 29.8085C146.859 30.1844 147.909 30.36 149.051 30.36V28.36ZM146.688 27.9624C146.047 27.6847 145.576 27.2949 145.238 26.7977L143.584 27.9223C144.152 28.7585 144.934 29.3819 145.893 29.7976L146.688 27.9624ZM145.248 26.8128C144.925 26.3192 144.731 25.6552 144.731 24.76H142.731C142.731 25.9448 142.99 27.0142 143.574 27.9072L145.248 26.8128ZM144.731 24.76V24.52H142.731V24.76H144.731ZM144.076 25.4583L144.836 25.1783L144.145 23.3017L143.385 23.5817L144.076 25.4583ZM143.491 24.24C143.491 25.168 143.217 25.8822 142.706 26.4525L144.195 27.7875C145.071 26.8112 145.491 25.6054 145.491 24.24H143.491ZM142.693 26.4671C142.157 27.0887 141.435 27.5701 140.487 27.8937L141.134 29.7864C142.373 29.3633 143.411 28.6979 144.208 27.7729L142.693 26.4671ZM140.48 27.8961C139.524 28.2309 138.516 28.4 137.451 28.4V30.4C138.732 30.4 139.964 30.1958 141.141 29.7839L140.48 27.8961ZM137.451 28.4C136.193 28.4 135.144 28.2026 134.279 27.8384L133.503 29.6816C134.664 30.1707 135.988 30.4 137.451 30.4V28.4ZM134.279 27.8384C133.417 27.4753 132.789 26.9733 132.35 26.3465L130.711 27.4935C131.393 28.4667 132.338 29.1913 133.503 29.6816L134.279 27.8384ZM132.371 26.3779C131.963 25.7452 131.731 24.9302 131.731 23.88H129.731C129.731 25.2298 130.032 26.4415 130.69 27.4621L132.371 26.3779ZM131.731 23.88C131.731 22.6526 132.087 21.7181 132.749 20.9948L131.273 19.6452C130.227 20.7886 129.731 22.2274 129.731 23.88H131.731ZM132.748 20.9957C133.432 20.2495 134.576 19.6507 136.327 19.3006L135.935 17.3394C133.952 17.736 132.349 18.4705 131.273 19.6443L132.748 20.9957ZM136.333 19.2994L143.893 17.7394L143.489 15.7806L135.929 17.3406L136.333 19.2994ZM142.691 16.7489L142.651 20.3489L144.651 20.3711L144.691 16.7711L142.691 16.7489ZM143.447 19.381L139.607 20.181L140.015 22.139L143.855 21.339L143.447 19.381ZM139.615 20.1794C138.741 20.3541 137.963 20.6371 137.386 21.0991L138.635 22.6609C138.858 22.4829 139.28 22.2859 140.007 22.1406L139.615 20.1794ZM137.393 21.0937C136.711 21.6296 136.451 22.4172 136.451 23.24H138.451C138.451 22.8361 138.564 22.7171 138.628 22.6663L137.393 21.0937ZM136.451 23.24C136.451 24.105 136.787 24.877 137.524 25.384L138.657 23.736C138.541 23.6563 138.451 23.5483 138.451 23.24H136.451ZM137.524 25.384C138.139 25.8068 138.85 26 139.611 26V24C139.198 24 138.896 23.8998 138.657 23.736L137.524 25.384ZM139.611 26C140.163 26 140.697 25.9185 141.207 25.7487L140.574 23.8513C140.284 23.9482 139.965 24 139.611 24V26ZM141.189 25.7545C141.731 25.585 142.223 25.3248 142.651 24.9682L141.37 23.4318C141.158 23.6086 140.903 23.7484 140.592 23.8455L141.189 25.7545ZM142.686 24.9372C143.116 24.543 143.448 24.0657 143.687 23.5208L141.854 22.7192C141.72 23.0276 141.545 23.2704 141.335 23.4628L142.686 24.9372ZM143.687 23.5208C143.941 22.9395 144.051 22.29 144.051 21.6H142.051C142.051 22.0833 141.973 22.4472 141.854 22.7192L143.687 23.5208ZM144.051 21.6V16.32H142.051V21.6H144.051ZM169.178 9.48L168.776 10.3953L168.787 10.4001L168.798 10.4047L169.178 9.48ZM172.338 11.76L171.549 12.3739L171.559 12.3861L171.568 12.398L172.338 11.76ZM173.778 14.8L174.093 15.7493L174.909 15.479L174.764 14.6317L173.778 14.8ZM167.498 16.88L166.511 17.0407L166.7 18.1979L167.813 17.8293L167.498 16.88ZM166.458 14.32L165.684 14.9532L165.7 14.9725L165.717 14.9909L166.458 14.32ZM162.178 14.04L162.733 14.8721L162.742 14.8662L162.178 14.04ZM160.898 15.88L161.841 16.2144L161.844 16.2051L160.898 15.88ZM160.938 22.28L160.006 22.641L160.01 22.6514L160.938 22.28ZM162.298 24.04L161.762 24.8837L161.775 24.8925L161.79 24.9009L162.298 24.04ZM166.018 24.2L166.509 25.0716L166.517 25.0668L166.525 25.0619L166.018 24.2ZM167.138 23.08L167.992 23.6014L167.138 23.08ZM167.698 21.32L168.003 20.3676L166.845 19.9965L166.705 21.2054L167.698 21.32ZM173.818 23.28L174.806 23.4371L174.941 22.5894L174.123 22.3276L173.818 23.28ZM172.298 26.44L171.55 25.777L171.549 25.7784L172.298 26.44ZM169.098 28.6L168.727 27.6715L169.098 28.6ZM158.698 28.2L158.245 29.0916L158.257 29.0973L158.698 28.2ZM154.938 24.64L154.066 25.1282L154.069 25.1345L154.938 24.64ZM154.938 13.4L155.808 13.8945L155.811 13.8882L154.938 13.4ZM158.618 9.84L159.072 10.7314L159.077 10.7284L158.618 9.84ZM164.138 9.6C166.077 9.6 167.609 9.88182 168.776 10.3953L169.581 8.56468C168.082 7.90485 166.253 7.6 164.138 7.6V9.6ZM168.798 10.4047C170.03 10.9123 170.93 11.5774 171.549 12.3739L173.128 11.1461C172.254 10.0226 171.047 9.16774 169.559 8.55532L168.798 10.4047ZM171.568 12.398C172.241 13.2093 172.638 14.0635 172.793 14.9683L174.764 14.6317C174.545 13.3498 173.983 12.1774 173.108 11.122L171.568 12.398ZM173.464 13.8507L167.184 15.9307L167.813 17.8293L174.093 15.7493L173.464 13.8507ZM168.485 16.7193C168.283 15.4773 167.888 14.4096 167.2 13.6491L165.717 14.9909C166.042 15.3504 166.34 15.9894 166.511 17.0407L168.485 16.7193ZM167.232 13.6868C166.519 12.8148 165.496 12.44 164.338 12.44V14.44C165.048 14.44 165.438 14.6518 165.684 14.9532L167.232 13.6868ZM164.338 12.44C163.325 12.44 162.399 12.6794 161.615 13.2138L162.742 14.8662C163.131 14.6006 163.645 14.44 164.338 14.44V12.44ZM161.624 13.2079C160.828 13.7384 160.293 14.5645 159.953 15.5549L161.844 16.2051C162.09 15.4889 162.409 15.0882 162.733 14.872L161.624 13.2079ZM159.956 15.5456C159.611 16.5185 159.458 17.7097 159.458 19.08H161.458C161.458 17.837 161.599 16.8948 161.841 16.2144L159.956 15.5456ZM159.458 19.08C159.458 20.457 159.625 21.6583 160.006 22.641L161.871 21.919C161.611 21.2484 161.458 20.3164 161.458 19.08H159.458ZM160.01 22.6514C160.389 23.5988 160.96 24.3733 161.762 24.8837L162.835 23.1963C162.464 22.96 162.128 22.5612 161.867 21.9086L160.01 22.6514ZM161.79 24.9009C162.555 25.3534 163.431 25.56 164.378 25.56V23.56C163.726 23.56 163.215 23.4199 162.807 23.1791L161.79 24.9009ZM164.378 25.56C165.157 25.56 165.888 25.4208 166.509 25.0716L165.528 23.3284C165.296 23.4592 164.933 23.56 164.378 23.56V25.56ZM166.525 25.0619C167.13 24.7062 167.619 24.2116 167.992 23.6014L166.285 22.5585C166.071 22.9084 165.813 23.1605 165.511 23.3381L166.525 25.0619ZM167.992 23.6014C168.377 22.9715 168.599 22.2383 168.692 21.4346L166.705 21.2054C166.638 21.7883 166.487 22.2285 166.285 22.5585L167.992 23.6014ZM167.393 22.2724L173.513 24.2324L174.123 22.3276L168.003 20.3676L167.393 22.2724ZM172.831 23.1229C172.676 24.0988 172.257 24.9787 171.55 25.777L173.047 27.103C173.993 26.0346 174.588 24.8079 174.806 23.4371L172.831 23.1229ZM171.549 25.7784C170.87 26.5476 169.942 27.1855 168.727 27.6715L169.47 29.5285C170.921 28.9479 172.127 28.1457 173.048 27.1016L171.549 25.7784ZM168.727 27.6715C167.537 28.1476 166.108 28.4 164.418 28.4V30.4C166.302 30.4 167.993 30.119 169.47 29.5285L168.727 27.6715ZM164.418 28.4C162.354 28.4 160.604 28.0226 159.14 27.3027L158.257 29.0973C160.047 29.9774 162.11 30.4 164.418 30.4V28.4ZM159.151 27.3085C157.695 26.5682 156.588 25.5174 155.808 24.1455L154.069 25.1345C155.049 26.8559 156.449 28.1785 158.245 29.0915L159.151 27.3085ZM155.811 24.1518C155.031 22.7564 154.618 21.052 154.618 19H152.618C152.618 21.3214 153.086 23.3769 154.066 25.1282L155.811 24.1518ZM154.618 19C154.618 16.9474 155.031 15.2596 155.808 13.8945L154.069 12.9055C153.086 14.6337 152.618 16.6793 152.618 19H154.618ZM155.811 13.8882C156.597 12.4839 157.679 11.4395 159.072 10.7314L158.165 8.94861C156.411 9.84049 155.04 11.1694 154.066 12.9118L155.811 13.8882ZM159.077 10.7284C160.515 9.98568 162.193 9.6 164.138 9.6V7.6C161.924 7.6 159.922 8.04098 158.159 8.95157L159.077 10.7284ZM177.114 29H176.114V30H177.114V29ZM177.114 0.52V-0.48H176.114V0.52H177.114ZM183.914 0.52H184.914V-0.48H183.914V0.52ZM183.914 12.64H182.914L184.829 13.0427L183.914 12.64ZM186.434 9.64L186.954 10.4938L186.962 10.4892L186.969 10.4845L186.434 9.64ZM193.834 9.4L193.368 10.285L193.377 10.2898L193.834 9.4ZM197.154 29V30H198.154V29H197.154ZM190.354 29H189.354V30H190.354V29ZM189.554 14.6L188.812 15.2709L188.829 15.2894L188.847 15.3071L189.554 14.6ZM184.394 15.76L183.486 15.3409L184.394 15.76ZM183.914 29V30H184.914V29H183.914ZM178.114 29V0.52H176.114V29H178.114ZM177.114 1.52H183.914V-0.48H177.114V1.52ZM182.914 0.52V12.64H184.914V0.52H182.914ZM184.829 13.0427C185.345 11.8699 186.059 11.0398 186.954 10.4938L185.913 8.7862C184.622 9.57356 183.656 10.7434 182.998 12.2373L184.829 13.0427ZM186.969 10.4845C187.885 9.90391 188.961 9.6 190.234 9.6V7.6C188.626 7.6 187.169 7.98942 185.898 8.79549L186.969 10.4845ZM190.234 9.6C191.492 9.6 192.526 9.84152 193.368 10.2849L194.299 8.51508C193.115 7.89181 191.749 7.6 190.234 7.6V9.6ZM193.377 10.2898C194.239 10.7318 194.91 11.378 195.403 12.2513L197.145 11.2687C196.464 10.062 195.508 9.13491 194.29 8.51018L193.377 10.2898ZM195.403 12.2513C195.882 13.1012 196.154 14.2258 196.154 15.68H198.154C198.154 13.9875 197.839 12.4988 197.145 11.2687L195.403 12.2513ZM196.154 15.68V29H198.154V15.68H196.154ZM197.154 28H190.354V30H197.154V28ZM191.354 29V17.56H189.354V29H191.354ZM191.354 17.56C191.354 16.0689 191.092 14.7244 190.261 13.8929L188.847 15.3071C189.082 15.5423 189.354 16.1711 189.354 17.56H191.354ZM190.295 13.9291C189.573 13.1312 188.609 12.76 187.514 12.76V14.76C188.125 14.76 188.521 14.9488 188.812 15.2709L190.295 13.9291ZM187.514 12.76C186.698 12.76 185.927 12.9661 185.218 13.3718L186.21 15.1082C186.62 14.8739 187.049 14.76 187.514 14.76V12.76ZM185.218 13.3718C184.446 13.8129 183.877 14.4944 183.486 15.3409L185.302 16.1791C185.551 15.639 185.862 15.3071 186.21 15.1082L185.218 13.3718ZM183.486 15.3409C183.084 16.2123 182.914 17.2773 182.914 18.48H184.914C184.914 17.4427 185.064 16.6944 185.302 16.1791L183.486 15.3409ZM182.914 18.48V29H184.914V18.48H182.914ZM183.914 28H177.114V30H183.914V28ZM205.678 28.16L205.219 29.0484L205.225 29.0515L205.678 28.16ZM201.958 24.6L202.828 24.1055L201.958 24.6ZM201.958 13.4L202.828 13.8945L201.958 13.4ZM205.638 9.84L205.179 8.95155L205.173 8.95476L205.638 9.84ZM216.478 9.84L215.987 10.7112L215.997 10.7164L216.006 10.7215L216.478 9.84ZM219.878 13.2L218.997 13.6731L219.001 13.68L219.878 13.2ZM220.878 20.72V21.72H221.726L221.865 20.8844L220.878 20.72ZM205.038 20.72H204.038V21.72H205.038V20.72ZM205.038 17.08V16.08H204.038V17.08H205.038ZM217.878 17.08L218.236 18.0139L217.878 16.08V17.08ZM214.638 18.32H213.638V19.7734L214.996 19.2539L214.638 18.32ZM213.758 14.64L212.922 15.1887L212.928 15.1977L212.934 15.2065L213.758 14.64ZM208.918 13.96L208.372 13.1224L208.364 13.128L208.355 13.1338L208.918 13.96ZM207.558 15.84L206.622 15.4889L206.617 15.5018L206.613 15.5149L207.558 15.84ZM207.638 22.32L206.716 22.7068L206.721 22.7176L207.638 22.32ZM209.118 24.08L208.615 24.9438L208.628 24.9518L208.642 24.9593L209.118 24.08ZM213.838 24L213.292 23.1624L213.284 23.168L213.275 23.1738L213.838 24ZM215.198 22.32L215.513 21.3706L214.625 21.077L214.272 21.9427L215.198 22.32ZM220.638 24.12L221.589 24.4296L221.897 23.4833L220.953 23.1706L220.638 24.12ZM218.678 27.04L219.327 27.8008L219.329 27.7993L218.678 27.04ZM215.398 28.8L215.1 27.8455L215.094 27.8473L215.398 28.8ZM211.438 28.4C209.349 28.4 207.591 28.0102 206.131 27.2685L205.225 29.0515C207.019 29.9631 209.101 30.4 211.438 30.4V28.4ZM206.137 27.2716C204.707 26.5326 203.611 25.4818 202.828 24.1055L201.089 25.0945C202.066 26.8116 203.45 28.1341 205.219 29.0484L206.137 27.2716ZM202.828 24.1055C202.051 22.7404 201.638 21.0526 201.638 19H199.638C199.638 21.3207 200.106 23.3663 201.089 25.0945L202.828 24.1055ZM201.638 19C201.638 16.9474 202.051 15.2596 202.828 13.8945L201.089 12.9055C200.106 14.6337 199.638 16.6793 199.638 19H201.638ZM202.828 13.8945C203.613 12.5138 204.7 11.4629 206.104 10.7252L205.173 8.95476C203.43 9.87047 202.064 11.1928 201.089 12.9055L202.828 13.8945ZM206.097 10.7284C207.537 9.98477 209.202 9.6 211.118 9.6V7.6C208.928 7.6 206.94 8.04189 205.179 8.95157L206.097 10.7284ZM211.118 9.6C213.096 9.6 214.704 9.98766 215.987 10.7112L216.969 8.96885C215.32 8.039 213.355 7.6 211.118 7.6V9.6ZM216.006 10.7215C217.333 11.4321 218.321 12.4131 218.997 13.6731L220.759 12.7269C219.889 11.1069 218.611 9.84786 216.951 8.95852L216.006 10.7215ZM219.001 13.68C219.683 14.9264 220.038 16.3837 220.038 18.08H222.038C222.038 16.0963 221.62 14.3003 220.756 12.72L219.001 13.68ZM220.038 18.08C220.038 18.5415 220.026 19.003 220 19.4645L221.997 19.5755C222.025 19.077 222.038 18.5785 222.038 18.08H220.038ZM220 19.4645C219.974 19.9236 219.937 20.2843 219.892 20.5556L221.865 20.8844C221.926 20.5157 221.969 20.0764 221.997 19.5755L220 19.4645ZM220.878 19.72H205.038V21.72H220.878V19.72ZM206.038 20.72V17.08H204.038V20.72H206.038ZM205.038 18.08H217.878V16.08H205.038V18.08ZM217.521 16.1461L214.281 17.3861L214.996 19.2539L218.236 18.0139L217.521 16.1461ZM215.638 18.32C215.638 16.6203 215.331 15.1617 214.582 14.0735L212.934 15.2065C213.36 15.825 213.638 16.8197 213.638 18.32H215.638ZM214.594 14.0913C213.815 12.9034 212.587 12.36 211.118 12.36V14.36C212.05 14.36 212.582 14.67 212.922 15.1887L214.594 14.0913ZM211.118 12.36C210.104 12.36 209.173 12.5998 208.372 13.1224L209.465 14.7976C209.89 14.5202 210.426 14.36 211.118 14.36V12.36ZM208.355 13.1338C207.555 13.679 206.994 14.4972 206.622 15.4889L208.495 16.1911C208.763 15.4762 209.108 15.041 209.482 14.7862L208.355 13.1338ZM206.613 15.5149C206.271 16.5101 206.118 17.7238 206.118 19.12H208.118C208.118 17.8496 208.26 16.8766 208.504 16.1651L206.613 15.5149ZM206.118 19.12C206.118 20.5038 206.3 21.715 206.716 22.7067L208.561 21.9333C208.283 21.2717 208.118 20.3495 208.118 19.12H206.118ZM206.721 22.7176C207.137 23.6774 207.76 24.445 208.615 24.9438L209.622 23.2162C209.197 22.9683 208.833 22.5626 208.556 21.9224L206.721 22.7176ZM208.642 24.9593C209.46 25.4023 210.406 25.6 211.438 25.6V23.6C210.658 23.6 210.057 23.451 209.595 23.2007L208.642 24.9593ZM211.438 25.6C212.57 25.6 213.592 25.3783 214.402 24.8262L213.275 23.1738C212.911 23.4217 212.333 23.6 211.438 23.6V25.6ZM214.385 24.8376C215.179 24.3194 215.759 23.5935 216.125 22.6973L214.272 21.9427C214.051 22.4865 213.724 22.8806 213.292 23.1624L214.385 24.8376ZM214.884 23.2694L220.324 25.0694L220.953 23.1706L215.513 21.3706L214.884 23.2694ZM219.688 23.8104C219.372 24.779 218.824 25.5978 218.028 26.2807L219.329 27.7993C220.399 26.8822 221.158 25.7544 221.589 24.4296L219.688 23.8104ZM218.029 26.2792C217.238 26.9546 216.268 27.4807 215.1 27.8455L215.697 29.7545C217.089 29.3193 218.306 28.672 219.327 27.8008L218.029 26.2792ZM215.094 27.8473C213.945 28.2143 212.728 28.4 211.438 28.4V30.4C212.923 30.4 214.346 30.1857 215.702 29.7527L215.094 27.8473Z" fill="black" mask="url(#path-1-outside-1_2315_97)"/>
</svg>
