<svg width="22" height="23" viewBox="0 0 22 23" fill="none" xmlns="http://www.w3.org/2000/svg">
<path d="M13.9999 15.5462L12.6453 16.0691L10.9601 15.6045L10.4356 13.8327L10.3982 13.7064L10.3033 13.6149L8.79483 12.1592L8.52346 11.8973L8.1971 12.0863L6.80482 12.8924H4.99776L3.74253 11.9234L3.21531 10.3971V8.73418V8.43891L2.95675 8.29633L1.01322 7.22463L0.61779 6.07986L1.97938 5.4229L4.34107 4.85314L4.37892 4.84401L4.4149 4.82913L6.52681 3.95572L6.64922 3.90509L6.73051 3.8005L8.39058 1.66456H10.389L11.7625 2.7249L11.8975 2.82911H12.068H13.5765H13.7785L13.9237 2.68891L15.6986 0.976194L16.4388 0.5H18.5767L20.4009 1.50589C23.1869 10.4408 20.0598 18.5635 17.8182 22.0818L17.3302 21.2969L16.7358 20.1497L16.6244 19.9347L16.3866 19.8888L15.2834 19.6759V17.7595V17.6756L15.256 17.5962L14.6525 15.8494L14.4834 15.3596L13.9999 15.5462Z" fill="#2B7A78" stroke="#2B7A78"/>
</svg>
