<svg width="27" height="33" viewBox="0 0 27 33" fill="none" xmlns="http://www.w3.org/2000/svg">
<path d="M25.6122 32.4969C20.5787 32.5729 13.8984 31.3108 8.70283 27.3144C3.10388 23.0077 -0.858555 15.458 0.936606 2.70479L2.86283 1.74563L5.02387 2.82172L5.34522 2.98173L5.59957 2.72842L6.77192 1.56088L8.10348 0.5H10.3021L10.7597 1.41141L11.6537 3.19202L11.8393 3.56184L12.2374 3.44859L14.0413 2.93528L15.1764 4.06569V6.23212V6.43983L15.3236 6.5864L16.8135 8.07024L16.8861 8.14254L16.9813 8.18046L18.3353 8.71984L19.6462 10.5476V12.0236L18.2328 14.2758L18.2011 14.3264L18.1821 14.3829L17.5862 16.1635L17.5082 16.3963L17.6448 16.6004L18.8368 18.381L18.9484 18.5477L19.1442 18.591L21.5498 19.1234L22.0067 20.4884L21.4536 22.4165L21.4062 22.5814L21.4702 22.7407L22.0662 24.2245L22.1045 24.3199L22.1773 24.3925L23.5201 25.7297V27.3917L22.1773 28.729L21.8688 29.0362L22.1307 29.384L23.0247 30.5711L23.1186 30.6957L23.2666 30.7449L24.8791 31.2802L25.6122 32.4969Z" fill="#2B7A78" stroke="#2B7A78"/>
</svg>
