<svg width="85" height="85" viewBox="0 0 85 85" fill="none" xmlns="http://www.w3.org/2000/svg">
<g clip-path="url(#clip0_2544_42)">
<path d="M38.9583 70.8333C38.9583 71.7726 39.3315 72.6735 39.9957 73.3377C40.6599 74.0019 41.5607 74.375 42.5 74.375C43.4393 74.375 44.3401 74.0019 45.0043 73.3377C45.6685 72.6735 46.0417 71.7726 46.0417 70.8333V46.0417H70.8333C71.7726 46.0417 72.6735 45.6685 73.3377 45.0043C74.0019 44.3401 74.375 43.4393 74.375 42.5C74.375 41.5607 74.0019 40.6599 73.3377 39.9957C72.6735 39.3315 71.7726 38.9583 70.8333 38.9583H46.0417V14.1667C46.0417 13.2274 45.6685 12.3265 45.0043 11.6623C44.3401 10.9981 43.4393 10.625 42.5 10.625C41.5607 10.625 40.6599 10.9981 39.9957 11.6623C39.3315 12.3265 38.9583 13.2274 38.9583 14.1667V38.9583H14.1667C13.2274 38.9583 12.3265 39.3315 11.6623 39.9957C10.9981 40.6599 10.625 41.5607 10.625 42.5C10.625 43.4393 10.9981 44.3401 11.6623 45.0043C12.3265 45.6685 13.2274 46.0417 14.1667 46.0417H38.9583V70.8333Z" fill="white"/>
</g>
<defs>
<clipPath id="clip0_2544_42">
<rect width="85" height="85" fill="white"/>
</clipPath>
</defs>
</svg>
