<svg width="85" height="85" viewBox="0 0 85 85" fill="none" xmlns="http://www.w3.org/2000/svg">
<path fill-rule="evenodd" clip-rule="evenodd" d="M42 48C45.9782 48 49.7936 46.4196 52.6066 43.6066C55.4196 40.7935 57 36.9782 57 33C57 29.0217 55.4196 25.2064 52.6066 22.3934C49.7936 19.5803 45.9782 18 42 18C38.0218 18 34.2064 19.5803 31.3934 22.3934C28.5804 25.2064 27 29.0217 27 33C27 36.9782 28.5804 40.7935 31.3934 43.6066C34.2064 46.4196 38.0218 48 42 48ZM42 44.25C43.4774 44.25 44.9403 43.959 46.3052 43.3936C47.6701 42.8282 48.9103 41.9996 49.955 40.9549C50.9996 39.9102 51.8283 38.6701 52.3936 37.3051C52.959 35.9402 53.25 34.4773 53.25 33C53.25 31.5226 52.959 30.0597 52.3936 28.6948C51.8283 27.3299 50.9996 26.0897 49.955 25.045C48.9103 24.0003 47.6701 23.1717 46.3052 22.6063C44.9403 22.0409 43.4774 21.75 42 21.75C39.0163 21.75 36.1548 22.9352 34.045 25.045C31.9353 27.1548 30.75 30.0163 30.75 33C30.75 35.9836 31.9353 38.8451 34.045 40.9549C36.1548 43.0647 39.0163 44.25 42 44.25Z" fill="#FEFFFF"/>
<path fill-rule="evenodd" clip-rule="evenodd" d="M79 42.5C79 62.0606 62.0607 79.5 42.5 79.5C22.9394 79.5 6 62.0606 6 42.5C6 22.9394 22.9394 5.99995 42.5 5.99995C62.0607 5.99995 79 22.9394 79 42.5ZM59.5532 69.4344C54.4549 72.6707 48.5388 74.3847 42.5 74.375C36.3165 74.3849 30.2649 72.5876 25.0892 69.2042C24.6642 68.6729 24.2339 68.124 23.7965 67.5573C23.291 66.8932 23.0184 66.081 23.0209 65.2463C23.0209 63.3392 24.3915 61.7401 26.2243 61.4727C38.3457 59.7019 46.6916 59.8542 58.8289 61.5347C59.7079 61.6621 60.5111 62.1033 61.0901 62.7767C61.6692 63.4502 61.985 64.3104 61.9792 65.1985C61.9792 66.0485 61.687 66.8737 61.1593 67.5183C60.6157 68.1806 60.0791 68.8199 59.5532 69.4344ZM65.4943 64.5752C65.211 61.2602 63.3805 57.4675 60 57C47.5758 55.2805 37.5824 55.1742 25.0892 57C21.6892 57.4958 19.8068 61.2549 19.5093 64.5787C13.799 58.6483 10.6138 50.7327 10.625 42.5C10.625 24.8961 24.8962 10.625 42.5 10.625C60.1039 10.625 74.375 24.8961 74.375 42.5C74.3863 50.731 71.2025 58.6451 65.4943 64.5752Z" fill="#FEFFFF"/>
</svg>
