<svg width="85" height="85" viewBox="0 0 85 85" fill="none" xmlns="http://www.w3.org/2000/svg">
<g clip-path="url(#clip0_2336_22)">
<path d="M42.4999 63.75L26.3233 40.9062C23.6755 37.78 21.9704 33.9659 21.4065 29.908C20.8426 25.8502 21.4432 21.7156 23.1382 17.9859C24.8333 14.2561 27.5531 11.0848 30.981 8.84104C34.4088 6.59732 38.4035 5.37364 42.4999 5.3125C48.1783 5.36861 53.603 7.67283 57.5859 11.7205C61.5688 15.7681 63.7853 21.2293 63.7499 26.9078C63.7521 31.8615 62.0656 36.668 58.9686 40.5344L42.4999 63.75ZM42.4999 10.625C38.2283 10.6741 34.1507 12.4163 31.1625 15.4692C28.1744 18.5221 26.5199 22.6361 26.5624 26.9078C26.5802 30.8067 27.9829 34.5724 30.5202 37.5328L42.4999 54.5063L54.7983 37.1875C57.1361 34.2695 58.4185 30.6467 58.4374 26.9078C58.4799 22.6361 56.8254 18.5221 53.8373 15.4692C50.8491 12.4163 46.7715 10.6741 42.4999 10.625Z" fill="#FEFFFF"/>
<path d="M42.5 29.2188C45.434 29.2188 47.8125 26.8403 47.8125 23.9062C47.8125 20.9722 45.434 18.5938 42.5 18.5938C39.566 18.5938 37.1875 20.9722 37.1875 23.9062C37.1875 26.8403 39.566 29.2188 42.5 29.2188Z" fill="#FEFFFF"/>
<g filter="url(#filter0_d_2336_22)">
<path d="M74.375 31.875H69.0625V37.1875H74.375V74.375H10.625V37.1875H15.9375V31.875H10.625C9.21604 31.875 7.86478 32.4347 6.86849 33.431C5.87221 34.4273 5.3125 35.7785 5.3125 37.1875V74.375C5.3125 75.784 5.87221 77.1352 6.86849 78.1315C7.86478 79.1278 9.21604 79.6875 10.625 79.6875H74.375C75.784 79.6875 77.1352 79.1278 78.1315 78.1315C79.1278 77.1352 79.6875 75.784 79.6875 74.375V37.1875C79.6875 35.7785 79.1278 34.4273 78.1315 33.431C77.1352 32.4347 75.784 31.875 74.375 31.875Z" fill="#FEFFFF"/>
<path d="M74.875 37.1875V36.6875H74.375H69.5625V32.375H74.375C75.6514 32.375 76.8754 32.882 77.7779 33.7845C78.6805 34.6871 79.1875 35.9111 79.1875 37.1875V74.375C79.1875 75.6514 78.6805 76.8754 77.7779 77.778C76.8754 78.6805 75.6514 79.1875 74.375 79.1875H10.625C9.34865 79.1875 8.12457 78.6805 7.22205 77.778C6.31953 76.8754 5.8125 75.6514 5.8125 74.375V37.1875C5.8125 35.9111 6.31953 34.6871 7.22205 33.7845C8.12457 32.882 9.34865 32.375 10.625 32.375H15.4375V36.6875H10.625H10.125V37.1875V74.375V74.875H10.625H74.375H74.875V74.375V37.1875Z" stroke="#FEFFFF"/>
</g>
</g>
<defs>
<filter id="filter0_d_2336_22" x="1.3125" y="31.875" width="82.375" height="55.8125" filterUnits="userSpaceOnUse" color-interpolation-filters="sRGB">
<feFlood flood-opacity="0" result="BackgroundImageFix"/>
<feColorMatrix in="SourceAlpha" type="matrix" values="0 0 0 0 0 0 0 0 0 0 0 0 0 0 0 0 0 0 127 0" result="hardAlpha"/>
<feOffset dy="4"/>
<feGaussianBlur stdDeviation="2"/>
<feComposite in2="hardAlpha" operator="out"/>
<feColorMatrix type="matrix" values="0 0 0 0 0 0 0 0 0 0 0 0 0 0 0 0 0 0 0.25 0"/>
<feBlend mode="normal" in2="BackgroundImageFix" result="effect1_dropShadow_2336_22"/>
<feBlend mode="normal" in="SourceGraphic" in2="effect1_dropShadow_2336_22" result="shape"/>
</filter>
<clipPath id="clip0_2336_22">
<rect width="85" height="85" fill="white"/>
</clipPath>
</defs>
</svg>
