<svg width="85" height="85" viewBox="0 0 85 85" fill="none" xmlns="http://www.w3.org/2000/svg">
<path d="M77.0313 73.2753L56.9713 53.2153C61.7918 47.4282 64.1956 40.0054 63.6827 32.491C63.1698 24.9766 59.7796 17.9493 54.2174 12.8709C48.6552 7.79249 41.3492 5.05398 33.8193 5.22507C26.2894 5.39617 19.1153 8.46369 13.7895 13.7895C8.4637 19.1153 5.39618 26.2894 5.22509 33.8193C5.054 41.3492 7.7925 48.6551 12.8709 54.2174C17.9493 59.7796 24.9767 63.1698 32.491 63.6827C40.0054 64.1956 47.4282 61.7918 53.2153 56.9713L73.2753 77.0313L77.0313 73.2753ZM10.625 34.5313C10.625 29.803 12.0271 25.181 14.6539 21.2497C17.2808 17.3183 21.0144 14.2542 25.3827 12.4448C29.751 10.6354 34.5578 10.1619 39.1951 11.0844C43.8325 12.0068 48.0922 14.2836 51.4355 17.627C54.7789 20.9703 57.0557 25.23 57.9782 29.8674C58.9006 34.5047 58.4272 39.3115 56.6178 43.6798C54.8084 48.0481 51.7442 51.7817 47.8129 54.4086C43.8815 57.0354 39.2595 58.4375 34.5313 58.4375C28.1931 58.4305 22.1165 55.9095 17.6348 51.4278C13.153 46.946 10.632 40.8694 10.625 34.5313Z" fill="white"/>
</svg>
